HIERARCHY
ROOT Hips
{
  OFFSET -33.9132 29.2015 117.021
  CHANNELS 6 Xposition Yposition Zposition Zrotation Xrotation Yrotation
  JOINT LeftUpLeg
  {
    OFFSET 8.64259 1.95398 -2.38835
    CHANNELS 3 Zrotation Xrotation Yrotation
    JOINT LeftLeg
    {
      OFFSET 43.7702 0 0
      CHANNELS 3 Zrotation Xrotation Yrotation
      JOINT LeftFoot
      {
        OFFSET 40.6238 0 0
        CHANNELS 3 Zrotation Xrotation Yrotation
        JOINT LeftToeBase
        {
          OFFSET 12.7242 0 0
          CHANNELS 3 Zrotation Xrotation Yrotation
          End Site
          {
            OFFSET 0 0 0
          }
        }
      }
    }
  }
  JOINT RightUpLeg
  {
    OFFSET -8.2249 1.95398 -2.59336
    CHANNELS 3 Zrotation Xrotation Yrotation
    JOINT RightLeg
    {
      OFFSET 43.5653 0 0
      CHANNELS 3 Zrotation Xrotation Yrotation
      JOINT RightFoot
      {
        OFFSET 40.6238 0 0
        CHANNELS 3 Zrotation Xrotation Yrotation
        JOINT RightToeBase
        {
          OFFSET 12.7242 0 0
          CHANNELS 3 Zrotation Xrotation Yrotation
          End Site
          {
            OFFSET 0 0 0
          }
        }
      }
    }
  }
  JOINT Spine
  {
    OFFSET 0.165834 0.87714 6.61349
    CHANNELS 3 Zrotation Xrotation Yrotation
    JOINT Spine1
    {
      OFFSET 7.38963 1.71661e-005 0
      CHANNELS 3 Zrotation Xrotation Yrotation
      JOINT Spine2
      {
        OFFSET 11.9445 1.14441e-005 0
        CHANNELS 3 Zrotation Xrotation Yrotation
        JOINT Spine3
        {
          OFFSET 14.7254 4.19617e-005 0
          CHANNELS 3 Zrotation Xrotation Yrotation
          JOINT Spine4
          {
            OFFSET 10.9679 0 0
            CHANNELS 3 Zrotation Xrotation Yrotation
            JOINT RightShoulder
            {
              OFFSET 2.46616 -1.6653 3.69651
              CHANNELS 3 Zrotation Xrotation Yrotation
              JOINT RightArm
              {
                OFFSET 13.0012 0 0
                CHANNELS 3 Zrotation Xrotation Yrotation
                JOINT RightForeArm
                {
                  OFFSET 28.7848 1.62311e-005 0
                  CHANNELS 3 Zrotation Xrotation Yrotation
                  JOINT RightHand
                  {
                    OFFSET 26.5688 1.62095e-005 0
                    CHANNELS 3 Zrotation Xrotation Yrotation
                    End Site
                    {
                      OFFSET 0 0 0
                    }
                  }
                }
              }
            }
            JOINT LeftShoulder
            {
              OFFSET 2.38034 -1.29275 -3.7523
              CHANNELS 3 Zrotation Xrotation Yrotation
              JOINT LeftArm
              {
                OFFSET 16.3182 6.07031e-005 0
                CHANNELS 3 Zrotation Xrotation Yrotation
                JOINT LeftForeArm
                {
                  OFFSET 27.0901 0 0
                  CHANNELS 3 Zrotation Xrotation Yrotation
                  JOINT LeftHand
                  {
                    OFFSET 24.5451 1.51738e-005 0
                    CHANNELS 3 Zrotation Xrotation Yrotation
                    End Site
                    {
                      OFFSET 0 0 0
                    }
                  }
                }
              }
            }
            JOINT Neck
            {
              OFFSET 5.0226 -0.0266342 0
              CHANNELS 3 Zrotation Xrotation Yrotation
              JOINT Head
              {
                OFFSET 6.69364 2.86102e-005 0
                CHANNELS 3 Zrotation Xrotation Yrotation
                End Site
                {
                  OFFSET 0 0 0
                }
              }
            }
          }
        }
      }
    }
  }
}
MOTION
Frames:	12
Frame Time:	0.0416667
43.7088 99.1519 -54.1118 99.5014 27.7302 76.949 -175.277 27.3419 82.8924 -24.0746 -1.79776 -2.50309 77.673 13.5228 -0.175981 18.5044 -8.11361 5.85556 170.009 -9.11339 85.6844 -26.4211 -6.25949 -0.769715 74.5496 -8.97431 -2.70094 29.4687 -0.800962 1.97742 2.33416 8.36854 -89.4676 10.1293 4.894 0.640992 -1.53252 4.91746 0.424452 -24.131 4.47467 2.085 -4.11832 4.47466 2.08499 93.7006 -17.2667 -103.722 47.0339 -5.63597 -39.424 -5.48573 -44.5841 -5.55972 -22.4772 3.3368 -22.3641 -85.8666 -40.8022 83.4621 -22.4429 -14.0387 38.1878 -10.3621 7.3172 -2.92254 -3.04532 0.0240523 -16.4 -7.28001 4.79364 20.5988 -5.31648 3.2711 -2.15889 
55.5789 93.2934 -65.9523 97.657 27.0964 80.6376 -174.717 29.333 84.4883 -21.8488 -2.24598 -3.05184 70.3811 6.37699 -4.63452 19.3582 -9.67182 9.37932 166.692 -21.2263 83.0963 -22.6727 -7.52674 -0.952021 80.9899 -13.7857 -4.18973 42.1409 -5.97327 -0.230544 2.26117 8.03214 -89.8552 10.8135 4.56931 -0.126588 -0.849554 4.55929 -0.327997 -23.4454 4.39573 1.25526 -3.43279 4.39574 1.25526 92.4456 -18.686 -106.132 49.5431 -6.12591 -35.5036 -5.72702 -47.7073 -5.72111 -26.4646 2.99679 -18.4171 -85.9859 -51.6918 84.9749 -10.816 -15.8582 25.6239 -10.0505 10.6493 0.0476922 4.81877 0.347249 -3.33257 -4.72699 6.52037 22.8159 -7.30119 4.25142 -0.516002 
69.5417 91.9042 -78.1381 96.5655 30.8677 76.9333 -170.477 32.2721 78.2325 -38.9169 8.29846 -6.94799 63.6827 1.33545 -0.58671 6.58807 -12.2568 1.67298 165.258 -17.5926 77.2126 -39.5303 -7.82687 -4.0565 61.6923 -0.817805 -1.79718 49.7996 -9.39178 3.26548 1.84629 7.60462 -88.9135 11.6352 4.1817 1.73079 -0.0299758 4.25384 1.54479 -22.5958 3.46825 2.90835 -2.58317 3.46826 2.90836 92.0616 -22.7822 -105.271 57.2066 -3.88909 -18.0126 -5.36466 -42.945 -5.48861 -19.8521 2.03085 -17.1945 -86.4168 -51.4194 84.3203 -13.9014 -19.2545 9.98127 -9.10212 -5.34778 -0.0139183 11.3965 0.714496 1.33923 -1.65913 6.66015 15.9677 -10.8592 4.78412 -2.33253 
80.863 91.6061 -87.9432 101.027 35.0265 72.7011 -170.284 23.586 74.5897 -50.1967 12.389 -6.41118 77.4778 11.8384 2.15851 6.39185 -14.0195 3.9635 173.537 2.14853 77.2462 -83.6915 -22.8326 -6.85792 56.3755 2.2983 -0.0830037 18.9677 2.11555 7.16507 1.04215 7.88709 -88.5765 11.0604 2.73482 2.5726 -0.609885 2.84536 2.44977 -23.137 1.83566 3.27516 -3.12437 1.83568 3.27516 92.1534 -24.273 -104.478 56.5471 3.27613 -1.56277 -5.61329 -46.2972 -5.64741 -10.0115 1.11123 -18.9998 -87.3923 -51.0267 82.8112 -19.5572 -16.02 -13.5753 -10.2615 2.97219 0.0188485 1.20867 -0.463174 -16.1753 0.37229 4.33439 5.44394 -8.9046 3.7483 -4.77132 
90.0673 97.8673 -96.5438 101.547 33.2582 78.847 -171.329 9.26346 81.9507 -38.8562 14.0677 -5.86498 72.8819 8.97234 2.27044 13.3195 -10.1257 4.08851 -177.817 25.3666 88.2193 -93.3851 -4.93544 -5.60083 63.7919 -3.24921 -3.89425 20.2893 1.84413 6.35935 0.541843 7.99046 -89.3141 10.9029 1.39599 1.2159 -0.767897 1.44815 1.15329 -23.3021 0.966075 1.57918 -3.28942 0.966065 1.57917 91.963 -25.381 -104.462 52.8877 7.37064 6.31082 -5.10316 -38.9403 -5.31385 -18.2275 -0.683112 -1.66886 -87.2698 -50.1912 82.8573 -19.2572 -14.1367 -31.3832 -9.68251 18.1297 -0.780415 11.4456 -2.07423 -20.4751 -5.68547 4.05796 0.702581 -7.65126 4.38174 -8.54016 
99.3781 106.161 -105.567 106.068 40.2188 81.8413 -175.116 -1.97043 86.9794 -29.343 17.4545 0.233762 54.3275 -4.14122 -1.0046 9.9612 -12.0493 4.09627 -177.961 32.4379 91.7576 -79.4159 -0.527939 -4.87791 70.4845 -7.37009 -4.07809 20.3051 2.59792 4.05709 -0.384449 8.36302 -90.4942 10.1492 -0.991542 -0.900813 -1.52172 -1.03022 -0.856314 -24.056 -0.675001 -1.15714 -4.04337 -0.674996 -1.15715 90.7445 -25.2786 -107.119 47.1256 11.1022 14.0363 -4.56048 -29.3688 -5.08825 -18.3322 -0.302178 -3.48425 -87.3329 -43.7306 81.5814 -25.4655 -13.35 -43.9605 -8.63793 11.378 -1.34652 11.9436 -3.54378 -30.5072 -14.987 3.10807 -1.89001 -5.31085 3.27087 -5.96781 
109.177 108.537 -114.183 106.006 48.5666 84.0393 -172.607 -5.84565 91.2492 -22.5159 17.0305 -0.624733 56.1472 -2.77194 -3.37527 14.0142 -11.3766 6.8654 -177.906 34.997 93.0972 -64.4284 -7.47599 -4.43037 71.5957 -7.98499 -4.12788 20.6549 2.32503 4.42927 -0.759736 8.3415 -91.164 10.1673 -2.04479 -2.13828 -1.50362 -2.13688 -2.04625 -24.0309 -1.30786 -2.65371 -4.01825 -1.30787 -2.65372 90.5339 -26.0097 -107.26 43.1057 13.6723 21.9744 -4.9007 -35.6383 -5.23386 -11.3353 0.605954 -11.8364 -87.4857 -37.7047 80.0653 -31.9115 -10.3173 -58.0355 -7.0323 12.1123 -4.65589 11.2929 -4.672 -39.8873 -15.7729 0.733767 -9.12598 -5.22556 0.830093 -3.63264 
119.369 104.748 -122.885 105.347 56.307 86.5537 -171.416 -8.34915 94.2267 -18.3941 6.40989 0.399364 67.0861 4.11048 -2.96979 16.2163 -12.7367 11.2172 179.269 33.322 95.0174 -45.6441 -7.38992 -1.48694 70.0593 -6.96411 -2.63264 22.7795 1.81779 3.09085 -1.25847 8.24393 -91.5952 10.3363 -3.23702 -2.88804 -1.33353 -3.36093 -2.7428 -23.8604 -2.22006 -3.72674 -3.84778 -2.22004 -3.72673 91.6815 -25.3685 -105.078 44.1211 14.0263 24.3192 -5.02295 -37.7017 -5.29532 -8.63909 0.508799 -12.6582 -87.6265 -34.0595 78.948 -40.1889 -12.7955 -70.0691 -3.71635 9.40611 -5.0377 10.3105 -5.05455 -45.4858 -12.4186 -1.24063 -14.2509 -7.0878 -0.667474 -3.39698 
131.21 97.826 -133.14 105.574 59.3354 86.2848 -166.801 -21.5019 99.0871 -15.8759 7.86533 1.19867 82.5154 15.4715 1.47019 31.2715 -4.99503 14.6571 177.312 28.0438 96.8467 -27.4175 -9.55235 1.43701 70.7144 -7.93628 -2.40803 27.6339 0.391598 0.580439 -1.29878 8.06401 -91.545 10.7021 -3.29857 -2.78067 -0.967372 -3.41769 -2.6328 -23.4975 -2.31097 -3.6429 -3.48489 -2.31099 -3.64291 93.1569 -28.9335 -100.814 41.4714 14.2035 23.3424 -4.82942 -34.3915 -5.20356 -6.44067 0.418681 -13.728 -88.0674 -35.9155 78.604 -40.3328 -8.43635 -72.583 -3.94462 10.833 -8.80616 12.5792 -6.23837 -47.4008 -9.92923 -3.14645 -17.0066 -7.69461 -2.05801 -4.37508 
144.056 94.2679 -145.905 101.475 56.3364 89.0725 -164.558 -26.0846 101.238 -21.4497 7.74122 1.6891 70.9949 8.54252 4.27206 53.4793 7.32597 19.093 176.138 29.7669 98.8505 -33.6956 -11.178 2.81956 62.5143 -0.974922 -1.8384 24.025 1.21816 3.28996 -0.741958 7.26771 -91.7981 12.2963 -2.32673 -3.31501 0.62357 -2.47028 -3.20952 -21.8839 -1.22365 -3.86026 -1.87129 -1.22364 -3.86026 95.9237 -26.9181 -95.5168 43.3341 12.7894 18.2156 -4.26788 -23.2918 -4.98004 -3.8867 -0.0150145 -6.81488 -89.1982 -43.0678 78.4226 -35.3244 -3.75614 -51.2376 -5.01638 18.1344 -12.9076 11.0787 -5.65486 -47.664 -8.0794 -3.32993 -8.30063 -13.0539 -2.6082 -2.39363 
153.824 91.9132 -156.388 105.358 50.6724 86.4653 -166.318 -8.06813 101.643 -64.5644 10.5716 2.56347 56.9615 -1.89414 0.152841 11.549 -11.9128 5.40315 173.978 28.2034 102.177 -53.4565 -15.546 2.59244 69.9817 -7.2585 -5.61553 20.1141 2.43986 4.77865 -0.169306 7.66374 -91.9415 11.5106 -1.2446 -3.74076 -0.164938 -1.40792 -3.68246 -22.657 -0.0637857 -3.94158 -2.64439 -0.063796 -3.94158 92.187 -27.4896 -103.232 42.6369 10.2373 5.33315 -4.41968 -26.5171 -5.03431 -6.89966 0.381731 -12.5395 -89.6428 -47.6832 78.767 -29.7569 -4.38372 -29.7164 -7.47963 27.101 -6.89938 6.78923 -2.35385 -31.8294 -5.6185 0.844446 2.80544 -8.26276 0.469731 2.47236 
161.802 94.4407 -164.347 104.274 51.4582 84.1959 -174.248 20.9099 97.8644 -93.2303 13.1172 4.07407 62.0182 1.67135 4.15148 2.84189 -13.0058 -0.269024 174.105 19.3432 100.72 -52.1696 -14.7736 1.76002 74.8795 -11.571 -6.98187 21.7039 2.10445 3.74546 0.464533 7.7309 -91.5454 11.4152 0.202645 -3.0929 -0.259444 0.0663678 -3.09882 -22.7686 1.12251 -2.88932 -2.75596 1.12251 -2.88933 93.4908 -23.8317 -101.685 45.6888 5.42882 -9.31947 -4.16424 -21.0357 -4.94541 -18.2641 1.50429 -15.2305 -90.2211 -50.7868 78.5704 -25.9485 -11.4054 -16.2239 -11.1027 14.1598 0.493824 14.9922 -0.922778 -9.55239 -6.89116 1.53023 9.19516 -7.87173 0.588876 4.77783 
